<?xml version="1.0" standalone="no"?>
<!DOCTYPE svg PUBLIC "-//W3C//DTD SVG 20010904//EN"
 "http://www.w3.org/TR/2001/REC-SVG-20010904/DTD/svg10.dtd">
<svg version="1.0" xmlns="http://www.w3.org/2000/svg"
 width="599.000000pt" height="599.000000pt" viewBox="0 0 599.000000 599.000000"
 preserveAspectRatio="xMidYMid meet">
<metadata>
Created by potrace 1.11, written by Peter Selinger 2001-2013
</metadata>
<g transform="translate(0.000000,599.000000) scale(0.100000,-0.100000)"
fill="#000000" stroke="none">
<path d="M2881 5924 c58 -61 131 -153 114 -142 -51 30 -216 90 -323 117 -184
47 -539 48 -585 2 -7 -7 -7 -11 -2 -10 22 6 156 -14 248 -37 105 -26 184 -59
230 -98 l29 -23 -79 -22 c-95 -27 -104 -29 -122 -30 -8 -1 -11 -4 -7 -8 3 -4
-28 -24 -71 -46 -42 -21 -107 -59 -145 -83 l-68 -45 -73 35 c-111 53 -175 66
-302 62 -121 -4 -192 -24 -298 -84 -54 -31 -132 -100 -184 -164 -30 -37 -82
-141 -99 -197 -73 -249 19 -533 220 -676 62 -45 60 -35 36 -180 -25 -146 -32
-363 -17 -495 9 -76 34 -201 47 -236 5 -13 7 -24 4 -24 -2 0 0 -9 6 -20 15
-27 4 -25 -39 9 -34 27 -91 59 -172 96 -57 25 -206 52 -273 49 -205 -12 -320
-94 -376 -269 -7 -22 -26 -58 -42 -81 -64 -89 -72 -206 -22 -290 16 -27 36
-62 44 -77 8 -16 24 -39 37 -51 20 -20 22 -27 12 -54 -23 -67 27 -149 107
-171 36 -10 65 -8 111 10 25 9 30 6 72 -39 52 -56 110 -95 176 -118 54 -18
164 -24 214 -13 34 8 38 7 71 -34 90 -109 198 -198 327 -269 69 -38 73 -42 73
-75 0 -27 -11 -48 -52 -99 -56 -67 -242 -253 -293 -292 -72 -55 -131 -90 -142
-84 -6 4 -25 25 -43 46 -54 69 -126 106 -205 106 -93 0 -184 -55 -226 -136
-20 -40 -24 -60 -22 -123 1 -42 2 -96 2 -121 1 -76 21 -148 57 -201 19 -28 31
-56 27 -61 -12 -20 -4 -133 12 -183 28 -85 130 -281 185 -357 117 -162 265
-227 392 -173 18 7 63 47 99 87 89 98 158 138 389 227 80 31 336 110 410 127
8 1 89 20 180 42 158 37 168 38 230 26 36 -6 85 -15 109 -18 25 -3 52 -14 60
-23 16 -18 206 -250 274 -335 92 -115 177 -299 177 -383 0 -77 68 -161 157
-195 133 -50 370 8 616 152 89 52 110 70 153 135 20 30 43 53 53 53 9 0 40 11
68 25 45 23 76 51 144 131 9 10 33 34 52 52 46 43 70 94 75 162 8 106 -39 197
-128 248 -37 21 -58 26 -120 26 -41 1 -85 -3 -97 -7 -20 -7 -23 -3 -37 45 -17
59 -20 73 -42 208 -23 140 -31 557 -12 596 8 16 26 66 39 111 24 81 24 82 74
105 77 36 185 110 243 167 l54 52 63 -16 c119 -29 237 -2 336 77 55 45 61 47
82 34 58 -37 139 -24 187 31 27 31 31 42 28 81 -3 39 1 48 32 81 91 97 115
146 114 231 0 50 -7 77 -28 120 -16 30 -30 71 -33 90 -12 100 -95 205 -194
249 -133 59 -350 48 -491 -25 -39 -20 -40 -18 -12 24 62 90 127 253 134 332
13 169 -13 297 -81 399 -43 64 -65 84 -148 134 -30 17 -55 39 -56 47 -1 8 -5
49 -9 90 -18 203 -100 461 -211 667 -36 67 -36 67 -17 92 152 207 130 485 -54
667 -163 162 -415 193 -614 75 -36 -22 -80 -53 -98 -71 l-33 -31 -87 29 c-75
25 -200 58 -255 66 -9 1 -27 11 -39 23 -13 11 -50 38 -83 59 -54 35 -86 52
-235 124 l-45 22 56 -58z"/>
</g>
</svg>
